<svg width="22" height="16" viewBox="0 0 22 16" fill="none" xmlns="http://www.w3.org/2000/svg">
<path d="M22 0.829547C21.0424 1.38425 19.9821 1.80851 18.86 2.08598C18.2577 1.51731 17.4573 1.11425 16.567 0.931315C15.6767 0.74838 14.7395 0.794396 13.8821 1.06314C13.0247 1.33188 12.2884 1.81039 11.773 2.43394C11.2575 3.05749 10.9877 3.796 11 4.54958V5.37078C9.24263 5.4082 7.50127 5.08814 5.93101 4.43909C4.36074 3.79004 3.01032 2.83215 2 1.65075C2 1.65075 -2 9.04155 7 12.3263C4.94053 13.4744 2.48716 14.05 0 13.9687C9 18.0747 20 13.9687 20 4.52495C19.9991 4.2962 19.9723 4.06803 19.92 3.84335C20.9406 3.01681 21.6608 1.97324 22 0.829547Z" fill="white"/>
</svg>
